<svg xmlns="http://www.w3.org/2000/svg" viewBox="0 0 280 56" role="img" aria-labelledby="title"><title id="title">Baris — baris.dev</title><g fill="#AC91FF"><path d="M10 8h13c7 0 11 4 11 10 0 4-2 7-5 9 4 2 6 5 6 9 0 7-5 12-12 12H10V8zm8 8v8h5c2 0 3-2 3-4s-1-4-3-4h-5zm0 16v8h5c3 0 4-2 4-4s-1-4-4-4h-5z"/><path transform="translate(10 0)" d="M58 13a20 20 0 1 0 0 30V27H43v8h7v4a12 12 0 1 1 2-20l6-6z"/></g><text x="88" y="38" fill="#F4F1FF" font-family="Inter,Arial,sans-serif" font-size="30" font-weight="600" letter-spacing="-1">baris<tspan fill="#AC91FF">.dev</tspan></text></svg>
